<svg width="100" height="89" viewBox="0 0 100 89" fill="none" xmlns="http://www.w3.org/2000/svg">
<path d="M30.9615 8.89972C-10.9347 -13.5651 11.3912 25.4035 16.6443 32.547C21.3539 38.9515 28.3318 49.2847 76.3616 79.595C125.153 110.386 83.3318 36.9808 30.9615 8.89972Z" stroke="#D2651C" stroke-width="4" stroke-linejoin="round"/>
<path d="M68.0385 8.89972C109.935 -13.5651 87.6088 25.4035 82.3557 32.547C77.6461 38.9515 70.6682 49.2847 22.6384 79.595C-26.1525 110.386 15.6682 36.9808 68.0385 8.89972Z" stroke="#D2651C" stroke-width="2" stroke-linejoin="round"/>
<path d="M64.9319 9.41528C56.9154 12.7822 44.089 10.8182 38.6778 9.41528C36.8741 10.0165 36.8741 10.0165 33.6675 11.8202L33.6675 11.8202C49.2195 19.1954 64.5979 15.0937 70.1427 12.0207C70.1427 12.0207 70.7038 11.9806 64.9319 9.41528Z" fill="white"/>
<path d="M76.3554 16.6302C64.9079 21.3683 34.7808 18.404 27.0538 16.4297C24.8492 18.6343 24.4484 19.0351 23.6467 20.2376C45.8549 30.6164 72.8466 25.965 80.7645 21.6405C80.7645 21.6405 80.3637 20.6384 76.3554 16.6302Z" fill="white"/>
<path d="M17.2336 32.6632C18.0353 30.4587 19.3045 27.3857 20.0394 26.25C36.2328 36.0302 64.7314 35.0682 84.9732 29.4566C85.04 29.1226 85.6144 29.7773 86.5765 35.0682C52.907 45.8905 16.1858 35.5443 17.2336 32.6632Z" fill="white"/>
<path d="M87.3783 47.4938C41.4837 38.6756 17.2336 48.095 16.4319 48.6963C16.2316 49.0971 16.6325 51.7025 17.8348 54.3079C44.7704 47.093 74.4183 50.6336 85.775 53.3058C86.9775 51.3017 86.9775 50.5 87.3783 47.4938Z" fill="white"/>
<path d="M79.9695 64.7923C61.5927 54.6494 35.4338 61.5052 24.2479 65.7314C23.2492 64.7923 22.2411 63.8019 21.4421 61.9236C56.9173 50.2781 76.8401 57.0713 81.9669 61.9235C81.3657 63.126 80.9649 63.5269 79.9695 64.7923Z" fill="white"/>
<path d="M72.1468 72.1446C56.2741 65.5711 38.8782 69.8065 32.0641 72.7459C30.06 71.9442 29.8596 71.343 27.8555 69.5392C45.9728 61.683 67.7377 65.7314 76.3555 68.7376C74.7522 70.3409 74.3513 70.5413 72.1468 72.1446Z" fill="white"/>
<path d="M44.089 77.7563C44.6901 78.8082 56.3142 79.3595 59.12 77.7563C63.5564 75.2213 42.4856 74.9504 44.089 77.7563Z" fill="white"/>
</svg>
