<svg width="57" height="57" viewBox="0 0 57 57" fill="none" xmlns="http://www.w3.org/2000/svg">
<path d="M37.9566 1.45037L30.1391 9.26787C28.2216 11.1854 28.2216 14.3075 30.1391 16.225L33.1874 19.2733L31.442 21.0187L28.3937 17.9458C26.4762 16.0283 23.3541 16.0283 21.4366 17.9458L17.9457 21.4366C16.0282 23.3541 16.0282 26.4762 17.9457 28.3937L20.9941 31.442L19.2487 33.1875L16.2249 30.1145C14.3074 28.197 11.1853 28.197 9.26783 30.1145L1.45033 37.932C-0.467168 39.8495 -0.467168 42.9716 1.45033 44.8891L10.1528 53.5916C12.0703 55.5091 15.1924 55.5091 17.1099 53.5916L24.9274 45.7741C26.8449 43.8566 26.8449 40.7345 24.9274 38.817L21.8791 35.7687L23.6245 34.0233L26.6728 37.0716C28.5903 38.9891 31.7124 38.9891 33.6299 37.0716L37.0962 33.6054C39.0137 31.6879 39.0137 28.5658 37.0962 26.6483L34.0232 23.6L35.7687 21.8545L38.817 24.9029C40.7345 26.8204 43.8566 26.8204 45.7741 24.9029L53.5916 17.0854C55.5091 15.1679 55.5091 12.0458 53.5916 10.1283L44.8891 1.42579C42.9716 -0.491711 39.8741 -0.491711 37.9566 1.45037ZM16.2249 47.495L13.6191 50.1008L4.91658 41.4229L7.52241 38.817L16.2249 47.495ZM21.4366 42.2833L18.8307 44.8891L10.1282 36.1866L12.7341 33.5808L21.4366 42.2833ZM44.8891 18.8308L42.2833 21.4366L33.5807 12.7341L36.1866 10.1283L44.8891 18.8308ZM50.1007 13.6191L47.4949 16.225L38.7924 7.52246L41.4228 4.91662L50.1007 13.6191ZM34.4166 51.625V56.5416C40.2845 56.5416 45.9121 54.2106 50.0613 50.0614C54.2106 45.9121 56.5416 40.2845 56.5416 34.4166H51.6249C51.6249 43.9304 43.9303 51.625 34.4166 51.625ZM34.4166 41.7916V46.7083C41.2016 46.7083 46.7082 41.2016 46.7082 34.4166H41.7916C41.7916 38.4975 38.4974 41.7916 34.4166 41.7916Z" fill="black"/>
</svg>
