<svg width="128" height="128" viewBox="0 0 128 128" fill="none" xmlns="http://www.w3.org/2000/svg">
<path d="M64 85.3333L85.3334 64L64 42.6666L56.5334 50.1333L65.0667 58.6666H42.6667V69.3333H65.0667L56.5334 77.8666L64 85.3333ZM64 117.333C56.6222 117.333 49.6889 115.932 43.2 113.131C36.7111 110.329 31.0667 106.53 26.2667 101.733C21.4667 96.9333 17.6676 91.2888 14.8694 84.8C12.0711 78.3111 10.6702 71.3777 10.6667 64C10.6667 56.6222 12.0676 49.6889 14.8694 43.2C17.6711 36.7111 21.4702 31.0666 26.2667 26.2666C31.0667 21.4666 36.7111 17.6675 43.2 14.8693C49.6889 12.0711 56.6222 10.6702 64 10.6666C71.3778 10.6666 78.3111 12.0675 84.8 14.8693C91.2889 17.6711 96.9334 21.4702 101.733 26.2666C106.533 31.0666 110.334 36.7111 113.136 43.2C115.938 49.6889 117.337 56.6222 117.333 64C117.333 71.3777 115.932 78.3111 113.131 84.8C110.329 91.2888 106.53 96.9333 101.733 101.733C96.9334 106.533 91.2889 110.334 84.8 113.136C78.3111 115.938 71.3778 117.337 64 117.333ZM64 106.667C75.9111 106.667 86 102.533 94.2667 94.2666C102.533 86 106.667 75.9111 106.667 64C106.667 52.0888 102.533 42 94.2667 33.7333C86 25.4666 75.9111 21.3333 64 21.3333C52.0889 21.3333 42 25.4666 33.7334 33.7333C25.4667 42 21.3334 52.0888 21.3334 64C21.3334 75.9111 25.4667 86 33.7334 94.2666C42 102.533 52.0889 106.667 64 106.667Z" fill="white"/>
</svg>
