<svg width="81" height="81" viewBox="0 0 81 81" fill="none" xmlns="http://www.w3.org/2000/svg">
<path d="M40.5 74.25C35.8312 74.25 31.4438 73.3635 27.3375 71.5905C23.2313 69.8175 19.6594 67.4134 16.6219 64.3781C13.5844 61.3406 11.1803 57.7687 9.4095 53.6625C7.63875 49.5562 6.75225 45.1688 6.75 40.5C6.75 35.8312 7.6365 31.4438 9.4095 27.3375C11.1825 23.2313 13.5866 19.6594 16.6219 16.6219C19.6594 13.5844 23.2313 11.1803 27.3375 9.4095C31.4438 7.63875 35.8312 6.75225 40.5 6.75C45.1688 6.75 49.5562 7.6365 53.6625 9.4095C57.7687 11.1825 61.3406 13.5866 64.3781 16.6219C67.4156 19.6594 69.8209 23.2313 71.5939 27.3375C73.3669 31.4438 74.2523 35.8312 74.25 40.5C74.25 45.1688 73.3635 49.5562 71.5905 53.6625C69.8175 57.7687 67.4134 61.3406 64.3781 64.3781C61.3406 67.4156 57.7687 69.8209 53.6625 71.5939C49.5562 73.3669 45.1688 74.2523 40.5 74.25ZM40.5 67.5C48.0375 67.5 54.4219 64.8844 59.6531 59.6531C64.8844 54.4219 67.5 48.0375 67.5 40.5H40.5V13.5C32.9625 13.5 26.5781 16.1156 21.3469 21.3469C16.1156 26.5781 13.5 32.9625 13.5 40.5C13.5 48.0375 16.1156 54.4219 21.3469 59.6531C26.5781 64.8844 32.9625 67.5 40.5 67.5Z" fill="#E5E5E5"/>
</svg>
